<?xml version="1.0" encoding="UTF-8" standalone="no"?>
<!-- Created with Inkscape (http://www.inkscape.org/) -->

<svg
   xmlns:dc="http://purl.org/dc/elements/1.1/"
   xmlns:cc="http://creativecommons.org/ns#"
   xmlns:rdf="http://www.w3.org/1999/02/22-rdf-syntax-ns#"
   xmlns:svg="http://www.w3.org/2000/svg"
   xmlns="http://www.w3.org/2000/svg"
   xmlns:sodipodi="http://sodipodi.sourceforge.net/DTD/sodipodi-0.dtd"
   xmlns:inkscape="http://www.inkscape.org/namespaces/inkscape"
   width="1969.651"
   height="527.16998"
   viewBox="0 0 521.13683 139.48039"
   version="1.1"
   id="svg8"
   inkscape:version="0.92.4 (5da689c313, 2019-01-14)"
   sodipodi:docname="core.svg">
  <defs
     id="defs2" />
  <sodipodi:namedview
     id="base"
     pagecolor="#ffffff"
     bordercolor="#666666"
     borderopacity="1.0"
     inkscape:pageopacity="0.0"
     inkscape:pageshadow="2"
     inkscape:zoom="0.25"
     inkscape:cx="-273.42843"
     inkscape:cy="-148.28863"
     inkscape:document-units="mm"
     inkscape:current-layer="layer1"
     showgrid="false"
     inkscape:showpageshadow="false"
     borderlayer="false"
     showborder="true"
     inkscape:window-width="1920"
     inkscape:window-height="1017"
     inkscape:window-x="-8"
     inkscape:window-y="-8"
     inkscape:window-maximized="1"
     showguides="true"
     inkscape:guide-bbox="true"
     units="px" />
  <metadata
     id="metadata5">
    <rdf:RDF>
      <cc:Work
         rdf:about="">
        <dc:format>image/svg+xml</dc:format>
        <dc:type
           rdf:resource="http://purl.org/dc/dcmitype/StillImage" />
        <dc:title></dc:title>
      </cc:Work>
    </rdf:RDF>
  </metadata>
  <g
     inkscape:label="Vrstva 1"
     inkscape:groupmode="layer"
     id="layer1"
     transform="translate(0,-157.51957)">
    <path
       style="opacity:1;fill:none;fill-opacity:1;fill-rule:evenodd;stroke:none;stroke-width:30;stroke-linecap:round;stroke-linejoin:round;stroke-miterlimit:4;stroke-dasharray:none;stroke-dashoffset:0;stroke-opacity:1;paint-order:markers fill stroke"
       d="m -27.51667,-805.78354 v 632.88331 h 872.06666 v -632.88331 z m 440.91986,262.23875 c 20.58035,0 36.71406,6.32021 48.40169,18.9606 1.2704,1.39745 1.90582,2.63622 1.90582,3.71607 0,1.20687 -2.22351,5.68492 -6.66988,13.43432 -4.38285,7.74938 -7.14605,12.10067 -8.2894,13.05346 -0.50816,0.50816 -1.14308,0.76224 -1.90532,0.76224 -0.3176,0 -1.90566,-1.27037 -4.76406,-3.81114 -3.43005,-3.04895 -6.79661,-5.43131 -10.09962,-7.14634 -5.01806,-2.5408 -10.22675,-3.81114 -15.62592,-3.81114 -9.33741,0 -16.80064,3.49385 -22.39036,10.48102 -5.14512,6.47898 -7.7179,14.48247 -7.7179,24.01041 0,9.65499 2.57278,17.75367 7.7179,24.29618 5.58972,7.11422 13.05295,10.6712 22.39036,10.6712 5.52619,0 10.76698,-1.20671 15.72152,-3.62045 3.2395,-1.588 6.5424,-3.81151 9.90896,-6.66988 2.79485,-2.41374 4.35083,-3.62045 4.66844,-3.62045 0.63518,0 1.27063,0.34927 1.90582,1.04798 1.01632,1.14337 3.77952,5.11329 8.28942,11.90988 4.63693,7.0507 6.95513,10.92539 6.95513,11.6241 0,1.01631 -0.66699,2.35032 -2.00091,4.00182 -11.68763,13.91081 -27.21798,20.86642 -46.59149,20.86642 -19.81811,0 -35.88871,-6.76519 -48.2115,-20.29487 -12.00523,-13.08504 -18.0077,-29.60012 -18.0077,-49.54529 0,-19.30998 5.87571,-35.69777 17.62684,-49.16395 12.25928,-14.10134 27.85329,-21.15219 46.78216,-21.15219 z"
       id="rect1229"
       inkscape:connector-curvature="0" />
    <path
       style="color:#000000;font-style:normal;font-variant:normal;font-weight:normal;font-stretch:normal;font-size:medium;line-height:normal;font-family:sans-serif;font-variant-ligatures:normal;font-variant-position:normal;font-variant-caps:normal;font-variant-numeric:normal;font-variant-alternates:normal;font-feature-settings:normal;text-indent:0;text-align:start;text-decoration:none;text-decoration-line:none;text-decoration-style:solid;text-decoration-color:#000000;letter-spacing:normal;word-spacing:normal;text-transform:none;writing-mode:lr-tb;direction:ltr;text-orientation:mixed;dominant-baseline:auto;baseline-shift:baseline;text-anchor:start;white-space:normal;shape-padding:0;clip-rule:nonzero;display:inline;overflow:visible;visibility:visible;opacity:1;isolation:auto;mix-blend-mode:normal;color-interpolation:sRGB;color-interpolation-filters:linearRGB;solid-color:#000000;solid-opacity:1;vector-effect:none;fill:#3174d7;fill-opacity:1;fill-rule:evenodd;stroke:none;stroke-width:23.24666405;stroke-linecap:round;stroke-linejoin:round;stroke-miterlimit:4;stroke-dasharray:none;stroke-dashoffset:0;stroke-opacity:1;paint-order:markers fill stroke;color-rendering:auto;image-rendering:auto;shape-rendering:auto;text-rendering:auto;enable-background:accumulate"
       d="m 11.623064,157.51959 c -6.4196593,0 -11.62334403602,5.20546 -11.6230635776888,11.62513 V 285.37689 C 7.941723e-4,291.79579 5.204164,296.99916 11.623064,296.99996 H 127.85731 c 6.4189,0 11.62226,-5.20417 11.62306,-11.62307 V 169.14472 c 2.7e-4,-6.41967 -5.2034,-11.62434 -11.62306,-11.62513 z m 63.973355,11.24064 c 17.211087,0 30.703951,5.28537 40.478151,15.8564 1.06241,1.16866 1.59318,2.20479 1.59318,3.10782 0,1.00933 -1.85899,4.75424 -5.57743,11.23497 -3.6653,6.48073 -5.97622,10.11936 -6.9324,10.91613 -0.42497,0.42497 -0.95574,0.63717 -1.59318,0.63717 -0.26563,0 -1.59385,-1.06206 -3.984255,-3.18688 -2.868515,-2.54979 -5.683724,-4.54216 -8.445997,-5.97638 -4.196559,-2.12482 -8.55271,-3.18688 -13.067935,-3.18688 -7.808756,0 -14.050341,2.92155 -18.724957,8.76482 -4.302741,5.4183 -6.454386,12.11131 -6.454386,20.07942 0,8.07431 2.151645,14.84725 6.454386,20.31865 4.674616,5.9495 10.916201,8.9245 18.724957,8.92453 4.621472,0 9.004109,-1.00968 13.147516,-3.02827 2.70918,-1.32797 5.471467,-3.18696 8.286834,-5.57741 2.337307,-2.01859 3.638517,-3.02774 3.904157,-3.02774 0.5312,0 1.06249,0.29208 1.5937,0.87644 0.84993,0.95617 3.16086,4.27622 6.93239,9.9601 3.87783,5.89643 5.8167,9.13657 5.8167,9.72087 0,0.84993 -0.55772,1.96541 -1.67328,3.34656 -9.7742,11.63344 -22.762265,17.45009 -38.964031,17.45009 -16.573632,0 -30.013065,-5.65735 -40.31847,-16.97209 C 26.752238,258.0557 21.732007,244.24479 21.732007,227.5649 c 0,-16.14866 4.913874,-29.85373 14.741218,-41.11532 10.25226,-11.79277 23.293252,-17.68935 39.123194,-17.68935 z"
       id="rect836"
       inkscape:connector-curvature="0" />
    <g
       id="g883"
       transform="translate(-167.13446,471.26714)">
      <path
         d="m 454.1685,-243.86538 q 0,29.46353 -18.79239,49.38924 -19.17024,20.20896 -48.53928,20.20896 -29.18028,0 -48.4449,-20.39783 -18.88688,-19.9257 -18.88688,-49.20037 0,-29.36904 18.88688,-49.38913 19.26462,-20.49232 48.4449,-20.49232 28.99131,0 48.35041,20.49232 18.98126,20.20896 18.98126,49.38913 z m -35.79059,-0.18886 q 0,-14.16516 -8.59358,-24.08072 -8.97121,-10.38779 -22.9475,-10.38779 -13.3153,0 -22.56987,10.76552 -8.97122,10.38779 -8.97122,23.89185 0,14.44852 8.40461,24.08082 8.87683,10.10443 23.13648,10.10443 13.3152,0 22.66425,-10.67103 8.87683,-10.19892 8.87683,-23.70308 z"
         style="font-style:normal;font-variant:normal;font-weight:normal;font-stretch:normal;font-size:192px;line-height:1.25;font-family:'Berlin Sans FB Demi';-inkscape-font-specification:'Berlin Sans FB Demi';font-variant-ligatures:normal;font-variant-caps:normal;font-variant-numeric:normal;font-feature-settings:normal;text-align:start;letter-spacing:0px;word-spacing:0px;writing-mode:lr-tb;text-anchor:start;fill:#3174d7;fill-opacity:1;stroke:none;stroke-width:1.00730026"
         id="path869"
         inkscape:connector-curvature="0" />
      <path
         d="m 580.99394,-178.70564 q 0,0.66109 -1.88869,0.94434 -3.5885,0.56661 -18.03702,0.56661 -12.37085,0 -16.80932,-0.56661 -2.07756,-0.28325 -2.36081,-0.47212 -0.56661,-0.28336 -1.32208,-1.88869 -1.41657,-3.68299 -4.15511,-10.95439 -3.683,-9.44344 -11.521,-27.8582 -1.69982,-3.68289 -7.8381,-4.06062 2.83303,0.18886 -9.7267,0.18886 -1.41656,0 -1.41656,4.81611 0,6.42154 1.13321,19.17023 1.2277,12.74859 1.2277,19.17013 0,1.60544 -0.84996,1.88869 -1.32208,0.0947 -2.64417,0.18887 -5.57157,0.37774 -17.37592,0.37774 -13.50407,0 -16.24272,-0.56661 -2.73855,-0.56661 -2.73855,-2.92742 0,-10.38778 0.94435,-31.35222 1.03872,-20.96443 1.03872,-31.4467 0,-39.9457 -1.7942,-62.3267 l -0.0947,-1.32208 q -0.0947,-1.60533 2.92751,-2.17194 3.11629,-0.56661 28.89693,-1.13321 17.47031,-0.37774 27.85809,-0.37774 21.53104,0 35.1296,9.72669 15.39285,10.95439 15.39285,31.63557 0,13.78743 -3.96624,22.00317 -3.96625,8.21584 -14.63738,15.95946 -2.17194,1.51095 -2.17194,2.83303 0,-0.0947 11.52099,23.70298 11.521,23.79747 11.521,26.25277 z m -39.66245,-84.70761 q 0,-11.52099 -7.55475,-15.95946 -5.85493,-3.39964 -18.32027,-3.39964 -8.97132,0 -9.53792,2.73865 -0.56661,3.21077 -0.56661,18.50914 0,2.17194 0.0947,6.42154 0.0947,4.2495 0.0947,6.32706 0,0.47222 3.0219,0.94434 5.76055,0.84996 12.08761,0.84996 20.68118,0 20.68118,-16.43159 z"
         style="font-style:normal;font-variant:normal;font-weight:normal;font-stretch:normal;font-size:192px;line-height:1.25;font-family:'Berlin Sans FB Demi';-inkscape-font-specification:'Berlin Sans FB Demi';font-variant-ligatures:normal;font-variant-caps:normal;font-variant-numeric:normal;font-feature-settings:normal;text-align:start;letter-spacing:0px;word-spacing:0px;writing-mode:lr-tb;text-anchor:start;fill:#3174d7;fill-opacity:1;stroke:none;stroke-width:1.00730026"
         id="path871"
         inkscape:connector-curvature="0" />
      <path
         d="m 688.27141,-207.13035 q 0,4.06063 -1.60543,14.92064 -1.69982,11.80425 -3.0219,14.07067 -1.13322,1.79431 -3.11629,1.79431 -0.84996,0 -2.83303,-0.28336 -6.89376,-0.94434 -40.22905,-0.94434 -7.2715,0 -21.62553,-0.0947 -14.35403,-0.0947 -21.53104,-0.0947 -3.11629,0 -3.11629,-2.73855 0,-10.57665 1.13322,-31.72996 1.22759,-21.24779 1.22759,-31.82444 0,-10.76552 -1.13321,-40.13457 -0.28325,-7.55475 -1.03873,-22.56987 l -0.0947,-1.32208 q -0.18887,-2.17194 2.36091,-2.17194 6.98814,0 20.96443,0.37774 14.07068,0.37774 21.05882,0.37774 6.89376,0 20.77557,-0.37774 13.88191,-0.37774 20.77557,-0.37774 4.91058,0 5.66606,3.68289 0.47222,2.17204 1.41657,13.22082 1.03872,10.95439 1.03872,13.3153 0,1.98307 -1.88868,1.98307 -0.56661,0 -1.98308,-0.0947 -25.11954,-2.07755 -45.13964,-2.07755 -5.00507,0 -6.13828,2.36081 -0.47212,1.13321 -0.47212,7.27149 0,6.42154 1.88868,8.4991 1.60534,1.7942 6.13819,1.7942 0.94434,0 3.68299,-0.0947 2.73855,-0.18887 4.53285,-0.18887 11.89874,0 24.08072,-0.66109 1.03883,-0.0947 5.19394,-0.47212 3.21077,-0.37774 5.09946,-0.37774 2.26643,0 2.26643,2.17194 0,-1.98307 -1.69982,14.44851 -0.75548,7.55475 -0.75548,15.1095 0,1.88869 -2.73865,1.88869 0,0 -8.49909,-0.94434 -5.38271,-0.56661 -24.55294,-0.56661 H 634.3491 q -3.87176,0 -4.53285,1.88869 -0.0947,0.47212 -0.0947,5.85493 0,7.17702 0.94435,9.25457 1.60533,3.58851 12.0876,4.2495 -0.18887,0 13.78742,0 5.00497,0 14.82615,-0.84986 9.91566,-0.94434 14.82625,-0.94434 2.07756,0 2.07756,3.39964 z"
         style="font-style:normal;font-variant:normal;font-weight:normal;font-stretch:normal;font-size:192px;line-height:1.25;font-family:'Berlin Sans FB Demi';-inkscape-font-specification:'Berlin Sans FB Demi';font-variant-ligatures:normal;font-variant-caps:normal;font-variant-numeric:normal;font-feature-settings:normal;text-align:start;letter-spacing:0px;word-spacing:0px;writing-mode:lr-tb;text-anchor:start;fill:#3174d7;fill-opacity:1;stroke:none;stroke-width:1.00730026"
         id="path873"
         inkscape:connector-curvature="0" />
    </g>
  </g>
</svg>
