<?xml version="1.0" encoding="UTF-8" standalone="no"?>
<svg
   xmlns:dc="http://purl.org/dc/elements/1.1/"
   xmlns:cc="http://creativecommons.org/ns#"
   xmlns:rdf="http://www.w3.org/1999/02/22-rdf-syntax-ns#"
   xmlns:svg="http://www.w3.org/2000/svg"
   xmlns="http://www.w3.org/2000/svg"
   xmlns:sodipodi="http://sodipodi.sourceforge.net/DTD/sodipodi-0.dtd"
   xmlns:inkscape="http://www.inkscape.org/namespaces/inkscape"
   width="1969.651"
   height="527.16998"
   viewBox="0 0 521.13683 139.48039"
   version="1.1"
   id="svg8"
   inkscape:version="1.0.1 (3bc2e813f5, 2020-09-07)"
   sodipodi:docname="PHPCore_red.svg">
  <defs
     id="defs2" />
  <sodipodi:namedview
     id="base"
     pagecolor="#ffffff"
     bordercolor="#666666"
     borderopacity="1.0"
     inkscape:pageopacity="0.0"
     inkscape:pageshadow="2"
     inkscape:zoom="0.25"
     inkscape:cx="224.57157"
     inkscape:cy="-148.28863"
     inkscape:document-units="mm"
     inkscape:current-layer="layer1"
     showgrid="false"
     inkscape:showpageshadow="false"
     borderlayer="false"
     showborder="true"
     inkscape:window-width="1920"
     inkscape:window-height="1017"
     inkscape:window-x="-8"
     inkscape:window-y="-8"
     inkscape:window-maximized="1"
     showguides="true"
     inkscape:guide-bbox="true"
     units="px"
     inkscape:document-rotation="0" />
  <metadata
     id="metadata5">
    <rdf:RDF>
      <cc:Work
         rdf:about="">
        <dc:format>image/svg+xml</dc:format>
        <dc:type
           rdf:resource="http://purl.org/dc/dcmitype/StillImage" />
        <dc:title />
      </cc:Work>
    </rdf:RDF>
  </metadata>
  <g
     inkscape:label="Vrstva 1"
     inkscape:groupmode="layer"
     id="layer1"
     transform="translate(0,-157.51957)">
    <path
       style="opacity:1;fill:none;fill-opacity:1;fill-rule:evenodd;stroke:none;stroke-width:30;stroke-linecap:round;stroke-linejoin:round;stroke-miterlimit:4;stroke-dasharray:none;stroke-dashoffset:0;stroke-opacity:1;paint-order:markers fill stroke"
       d="m -27.51667,-805.78354 v 632.88331 h 872.06666 v -632.88331 z m 440.91986,262.23875 c 20.58035,0 36.71406,6.32021 48.40169,18.9606 1.2704,1.39745 1.90582,2.63622 1.90582,3.71607 0,1.20687 -2.22351,5.68492 -6.66988,13.43432 -4.38285,7.74938 -7.14605,12.10067 -8.2894,13.05346 -0.50816,0.50816 -1.14308,0.76224 -1.90532,0.76224 -0.3176,0 -1.90566,-1.27037 -4.76406,-3.81114 -3.43005,-3.04895 -6.79661,-5.43131 -10.09962,-7.14634 -5.01806,-2.5408 -10.22675,-3.81114 -15.62592,-3.81114 -9.33741,0 -16.80064,3.49385 -22.39036,10.48102 -5.14512,6.47898 -7.7179,14.48247 -7.7179,24.01041 0,9.65499 2.57278,17.75367 7.7179,24.29618 5.58972,7.11422 13.05295,10.6712 22.39036,10.6712 5.52619,0 10.76698,-1.20671 15.72152,-3.62045 3.2395,-1.588 6.5424,-3.81151 9.90896,-6.66988 2.79485,-2.41374 4.35083,-3.62045 4.66844,-3.62045 0.63518,0 1.27063,0.34927 1.90582,1.04798 1.01632,1.14337 3.77952,5.11329 8.28942,11.90988 4.63693,7.0507 6.95513,10.92539 6.95513,11.6241 0,1.01631 -0.66699,2.35032 -2.00091,4.00182 -11.68763,13.91081 -27.21798,20.86642 -46.59149,20.86642 -19.81811,0 -35.88871,-6.76519 -48.2115,-20.29487 -12.00523,-13.08504 -18.0077,-29.60012 -18.0077,-49.54529 0,-19.30998 5.87571,-35.69777 17.62684,-49.16395 12.25928,-14.10134 27.85329,-21.15219 46.78216,-21.15219 z"
       id="rect1229"
       inkscape:connector-curvature="0" />
    <path
       id="rect836"
       style="color:#000000;font-style:normal;font-variant:normal;font-weight:normal;font-stretch:normal;font-size:medium;line-height:normal;font-family:sans-serif;font-variant-ligatures:normal;font-variant-position:normal;font-variant-caps:normal;font-variant-numeric:normal;font-variant-alternates:normal;font-feature-settings:normal;text-indent:0;text-align:start;text-decoration:none;text-decoration-line:none;text-decoration-style:solid;text-decoration-color:#000000;letter-spacing:normal;word-spacing:normal;text-transform:none;writing-mode:lr-tb;direction:ltr;text-orientation:mixed;dominant-baseline:auto;baseline-shift:baseline;text-anchor:start;white-space:normal;shape-padding:0;clip-rule:nonzero;display:inline;overflow:visible;visibility:visible;opacity:1;isolation:auto;mix-blend-mode:normal;color-interpolation:sRGB;color-interpolation-filters:linearRGB;solid-color:#000000;solid-opacity:1;vector-effect:none;fill:#dc3636;fill-opacity:1;fill-rule:evenodd;stroke:none;stroke-width:87.8614;stroke-linecap:round;stroke-linejoin:round;stroke-miterlimit:4;stroke-dasharray:none;stroke-dashoffset:0;stroke-opacity:1;paint-order:markers fill stroke;color-rendering:auto;image-rendering:auto;shape-rendering:auto;text-rendering:auto;enable-background:accumulate"
       d="M 43.929688 0 C 19.666408 0 -0.00106 19.67418 0 43.9375 L 0 483.24023 C 0.003 507.50064 19.669278 527.1669 43.929688 527.16992 L 483.24023 527.16992 C 507.50064 527.16992 527.1669 507.50064 527.16992 483.24023 L 527.16992 43.9375 C 527.17094 19.67418 507.50352 0.0029858268 483.24023 0 L 43.929688 0 z M 830.37109 0.001953125 C 756.84598 0.001953125 695.81226 25.818933 647.27148 77.453125 C 599.6825 127.89745 575.88867 190.12036 575.88867 264.12109 C 575.88867 337.88404 599.6825 399.86968 647.27148 450.07617 C 695.81226 501.47228 756.84598 527.16992 830.37109 527.16992 C 904.37182 527.16992 965.5232 501.70928 1013.8262 450.78906 C 1061.1771 400.58255 1084.8535 338.35991 1084.8535 264.12109 C 1084.8535 190.59626 1060.9401 128.37334 1013.1133 77.453125 C 964.33445 25.818933 903.42006 0.001953125 830.37109 0.001953125 z M 1364.6758 11.068359 C 1338.5018 11.068359 1303.4044 11.544308 1259.3848 12.496094 C 1194.4257 13.923747 1158.02 15.349665 1150.168 16.777344 C 1142.553 18.205022 1138.8649 20.941402 1139.1035 24.986328 L 1139.4609 29.984375 C 1143.9818 86.377446 1146.2422 164.89825 1146.2422 265.54883 C 1146.2422 291.96085 1144.9337 331.57858 1142.3164 384.40234 C 1139.9369 437.22613 1138.748 476.72646 1138.748 502.90039 C 1138.748 508.84889 1142.1974 512.53521 1149.0977 513.96289 C 1155.9982 515.39057 1176.4623 516.10547 1210.4883 516.10547 C 1240.2315 516.10547 1262.1216 515.62952 1276.1602 514.67773 C 1279.4914 514.44046 1282.8231 514.2015 1286.1543 513.96289 C 1288.2959 513.24919 1289.3672 510.87138 1289.3672 506.82617 C 1289.3672 490.64591 1287.82 466.49353 1284.7266 434.37109 C 1281.8712 402.24841 1280.4434 378.09823 1280.4434 361.91797 C 1280.4434 349.78289 1282.2276 343.71484 1285.7969 343.71484 C 1317.4434 343.71484 1329.6989 343.47587 1322.5605 343 C 1338.0271 343.95176 1347.9006 349.06793 1352.1836 358.34766 C 1371.9329 404.74705 1386.4485 439.84418 1395.7285 463.63867 C 1402.6288 481.96031 1407.8643 495.76104 1411.4336 505.04102 C 1413.3371 509.08594 1415.002 511.46571 1416.4297 512.17969 C 1417.1434 512.65558 1420.1168 513.24919 1425.3516 513.96289 C 1436.5351 515.39057 1457.7122 516.10547 1488.8828 516.10547 C 1525.2885 516.10547 1548.0128 515.39057 1557.0547 513.96289 C 1561.8136 513.24919 1564.1934 512.06027 1564.1934 510.39453 C 1564.1934 504.20795 1549.6777 471.134 1520.6484 411.17188 C 1491.6192 351.20922 1477.1055 321.34732 1477.1055 321.58594 C 1477.1055 318.25471 1479.8418 314.68602 1485.3145 310.87891 C 1512.2023 291.36742 1530.643 271.25992 1540.6367 250.55859 C 1550.6304 229.85752 1555.627 202.13647 1555.627 167.39648 C 1555.627 115.28642 1536.2344 75.431691 1497.4492 47.830078 C 1463.1851 23.321883 1418.9272 11.068359 1364.6758 11.068359 z M 1612.0195 13.207031 C 1605.5949 13.207031 1602.6198 15.943411 1603.0957 21.416016 L 1603.4551 26.412109 C 1605.3586 64.245483 1606.6672 92.681206 1607.3809 111.7168 C 1610.2362 185.71755 1611.6641 236.28053 1611.6641 263.40625 C 1611.6641 290.05608 1610.1166 330.14976 1607.0234 383.6875 C 1604.1681 436.98718 1602.7402 476.9615 1602.7402 503.61133 C 1602.7402 510.51161 1606.6655 513.96094 1614.5176 513.96094 C 1632.6014 513.96094 1659.7288 514.0817 1695.8965 514.32031 C 1732.0641 514.55893 1759.309 514.67773 1777.6309 514.67773 C 1861.6253 514.67773 1912.3057 515.86665 1929.6758 518.24609 C 1934.6725 518.96007 1938.2431 519.31836 1940.3848 519.31836 C 1945.3815 519.31836 1949.3068 517.05821 1952.1621 512.53711 C 1955.4933 506.82644 1959.301 489.09846 1963.584 459.35547 C 1967.6292 431.99166 1969.6523 413.1944 1969.6523 402.96289 L 1969.6504 402.95898 C 1969.6504 394.39296 1967.0317 390.10938 1961.7969 390.10938 C 1949.4237 390.10938 1930.7461 391.2983 1905.7617 393.67773 C 1881.0154 395.81911 1862.3356 396.89062 1849.7246 396.89062 L 1797.6152 396.89062 C 1771.2032 395.22514 1755.9746 389.87199 1751.9297 380.83008 C 1749.5502 375.59531 1748.3613 363.93539 1748.3613 345.85156 C 1748.3613 332.28858 1748.4801 324.91225 1748.7188 323.72266 C 1750.3845 318.96375 1756.0959 316.58398 1765.8516 316.58398 L 1803.6836 316.58398 C 1851.9865 316.58398 1882.9197 317.29888 1896.4824 318.72656 L 1928.6055 322.29492 C 1935.506 322.29492 1938.9551 319.91515 1938.9551 315.15625 C 1938.9551 296.12066 1939.907 277.08637 1941.8105 258.05078 C 1946.0936 216.64837 1948.2363 198.44469 1948.2363 203.44141 C 1948.2363 197.9688 1945.3806 195.23242 1939.6699 195.23242 C 1934.911 195.23242 1928.4866 195.70837 1920.3965 196.66016 C 1909.9269 197.61114 1903.3831 198.2067 1900.7656 198.44531 C 1870.0709 200.11105 1839.733 200.94336 1809.752 200.94336 C 1805.2309 200.94336 1799.5194 201.18036 1792.6191 201.65625 C 1785.7186 201.89486 1781.0787 202.01562 1778.6992 202.01562 C 1767.2779 202.01562 1759.545 199.75519 1755.5 195.23438 C 1750.7411 189.99958 1748.3613 179.29159 1748.3613 163.11133 C 1748.3613 147.6448 1748.9569 138.48424 1750.1465 135.62891 C 1753.0018 129.68041 1760.7345 126.70508 1773.3457 126.70508 C 1823.79 126.70508 1880.6598 129.32382 1943.9531 134.55859 C 1947.5222 134.79721 1950.0196 134.91602 1951.4473 134.91602 C 1956.2061 134.91602 1958.5859 132.41663 1958.5859 127.41992 C 1958.5859 121.47117 1957.2774 104.69732 1954.6602 77.095703 C 1952.2807 49.256257 1950.4965 32.59981 1949.3066 27.126953 C 1947.4031 17.84723 1940.2637 13.207031 1927.8906 13.207031 C 1910.5208 13.207031 1884.3472 13.68298 1849.3691 14.634766 C 1814.3914 15.586551 1788.2178 16.0625 1770.8477 16.0625 C 1753.2397 16.0625 1726.7095 15.586551 1691.2559 14.634766 C 1656.04 13.68298 1629.6274 13.207031 1612.0195 13.207031 z M 285.71875 42.484375 C 350.76853 42.484375 401.76517 62.460563 438.70703 102.41406 C 442.72244 106.83105 444.72852 110.74713 444.72852 114.16016 C 444.72852 117.97495 437.70238 132.12895 423.64844 156.62305 C 409.79534 181.11714 401.06117 194.86945 397.44727 197.88086 C 395.84108 199.48705 393.835 200.28906 391.42578 200.28906 C 390.42183 200.28906 385.40179 196.27496 376.36719 188.24414 C 365.52556 178.60714 354.8854 171.07692 344.44531 165.65625 C 328.5843 157.62543 312.1201 153.61133 295.05469 153.61133 C 265.54128 153.61133 241.95104 164.65348 224.2832 186.73828 C 208.02087 207.2169 199.88867 232.51321 199.88867 262.62891 C 199.88867 293.14598 208.02087 318.74452 224.2832 339.42383 C 241.95104 361.91013 265.54128 373.15418 295.05469 373.1543 C 312.52167 373.1543 329.08597 369.3383 344.74609 361.70898 C 354.98551 356.68989 365.42565 349.66368 376.06641 340.62891 C 384.90032 332.99959 389.81827 329.18555 390.82227 329.18555 C 392.82995 329.18555 394.83798 330.28944 396.8457 332.49805 C 400.05804 336.11192 408.79227 348.6602 423.04688 370.14258 C 437.70324 392.4283 445.03125 404.67443 445.03125 406.88281 C 445.03125 410.09515 442.92332 414.31116 438.70703 419.53125 C 401.76517 463.50016 352.67643 485.48437 291.44141 485.48438 C 228.80091 485.48438 178.0062 464.10226 139.05664 421.33789 C 101.11082 379.97909 82.136719 327.78039 82.136719 264.73828 C 82.136719 203.70398 100.70885 151.90529 137.85156 109.3418 C 176.60026 64.770698 225.88905 42.484375 285.71875 42.484375 z M 1316.4922 117.07227 C 1347.9009 117.07227 1370.9818 121.3539 1385.7344 129.91992 C 1404.77 141.10347 1414.2871 161.21097 1414.2871 190.24023 L 1414.2891 190.24023 C 1414.2891 231.64267 1388.2351 252.34375 1336.125 252.34375 C 1320.1828 252.34375 1304.9542 251.27249 1290.4395 249.13086 C 1282.8252 247.94127 1279.0176 246.75235 1279.0176 245.5625 C 1279.0176 240.3277 1278.8988 232.35584 1278.6602 221.64844 C 1278.4215 210.94078 1278.3027 202.85151 1278.3027 197.37891 C 1278.3027 158.83183 1279.0157 135.512 1280.4434 127.42188 C 1281.871 120.52134 1293.8873 117.07227 1316.4922 117.07227 z M 830.37109 133.13281 C 865.58694 133.13281 894.49694 146.22057 917.10156 172.39453 C 938.75468 197.37862 949.58203 227.71646 949.58203 263.4082 C 949.58203 297.43443 938.39807 327.29607 916.03125 352.99414 C 892.47459 379.88178 863.9212 393.32617 830.37109 393.32617 C 794.44127 393.32617 765.2926 380.5967 742.92578 355.13672 C 721.74881 330.86636 711.16016 300.52681 711.16016 264.12109 C 711.16016 230.09512 722.46371 199.99622 745.06836 173.82227 C 768.38696 146.69655 796.82073 133.13281 830.37109 133.13281 z "
       transform="matrix(0.26458333,0,0,0.26458333,0,157.51957)" />
  </g>
</svg>
