<?xml version="1.0" encoding="UTF-8" standalone="no"?>
<!-- Created with Inkscape (http://www.inkscape.org/) -->

<svg
   xmlns:dc="http://purl.org/dc/elements/1.1/"
   xmlns:cc="http://creativecommons.org/ns#"
   xmlns:rdf="http://www.w3.org/1999/02/22-rdf-syntax-ns#"
   xmlns:svg="http://www.w3.org/2000/svg"
   xmlns="http://www.w3.org/2000/svg"
   xmlns:sodipodi="http://sodipodi.sourceforge.net/DTD/sodipodi-0.dtd"
   xmlns:inkscape="http://www.inkscape.org/namespaces/inkscape"
   width="32"
   height="32"
   viewBox="0 0 8.4666666 8.4666666"
   version="1.1"
   id="svg8"
   inkscape:version="0.92.4 (5da689c313, 2019-01-14)"
   sodipodi:docname="core_icon_red.svg">
  <defs
     id="defs2" />
  <sodipodi:namedview
     id="base"
     pagecolor="#ffffff"
     bordercolor="#666666"
     borderopacity="1.0"
     inkscape:pageopacity="0.0"
     inkscape:pageshadow="2"
     inkscape:zoom="4"
     inkscape:cx="15.219381"
     inkscape:cy="-11.753321"
     inkscape:document-units="mm"
     inkscape:current-layer="layer1"
     showgrid="false"
     inkscape:showpageshadow="false"
     borderlayer="false"
     showborder="true"
     inkscape:window-width="1920"
     inkscape:window-height="1017"
     inkscape:window-x="-8"
     inkscape:window-y="-8"
     inkscape:window-maximized="1"
     showguides="true"
     inkscape:guide-bbox="true"
     units="px" />
  <metadata
     id="metadata5">
    <rdf:RDF>
      <cc:Work
         rdf:about="">
        <dc:format>image/svg+xml</dc:format>
        <dc:type
           rdf:resource="http://purl.org/dc/dcmitype/StillImage" />
        <dc:title></dc:title>
      </cc:Work>
    </rdf:RDF>
  </metadata>
  <g
     inkscape:label="Vrstva 1"
     inkscape:groupmode="layer"
     id="layer1"
     transform="translate(0,-288.53329)">
    <path
       style="opacity:1;fill:none;fill-opacity:1;fill-rule:evenodd;stroke:none;stroke-width:30;stroke-linecap:round;stroke-linejoin:round;stroke-miterlimit:4;stroke-dasharray:none;stroke-dashoffset:0;stroke-opacity:1;paint-order:markers fill stroke"
       d="m -27.51667,-805.78354 v 632.88331 h 872.06666 v -632.88331 z m 440.91986,262.23875 c 20.58035,0 36.71406,6.32021 48.40169,18.9606 1.2704,1.39745 1.90582,2.63622 1.90582,3.71607 0,1.20687 -2.22351,5.68492 -6.66988,13.43432 -4.38285,7.74938 -7.14605,12.10067 -8.2894,13.05346 -0.50816,0.50816 -1.14308,0.76224 -1.90532,0.76224 -0.3176,0 -1.90566,-1.27037 -4.76406,-3.81114 -3.43005,-3.04895 -6.79661,-5.43131 -10.09962,-7.14634 -5.01806,-2.5408 -10.22675,-3.81114 -15.62592,-3.81114 -9.33741,0 -16.80064,3.49385 -22.39036,10.48102 -5.14512,6.47898 -7.7179,14.48247 -7.7179,24.01041 0,9.65499 2.57278,17.75367 7.7179,24.29618 5.58972,7.11422 13.05295,10.6712 22.39036,10.6712 5.52619,0 10.76698,-1.20671 15.72152,-3.62045 3.2395,-1.588 6.5424,-3.81151 9.90896,-6.66988 2.79485,-2.41374 4.35083,-3.62045 4.66844,-3.62045 0.63518,0 1.27063,0.34927 1.90582,1.04798 1.01632,1.14337 3.77952,5.11329 8.28942,11.90988 4.63693,7.0507 6.95513,10.92539 6.95513,11.6241 0,1.01631 -0.66699,2.35032 -2.00091,4.00182 -11.68763,13.91081 -27.21798,20.86642 -46.59149,20.86642 -19.81811,0 -35.88871,-6.76519 -48.2115,-20.29487 -12.00523,-13.08504 -18.0077,-29.60012 -18.0077,-49.54529 0,-19.30998 5.87571,-35.69777 17.62684,-49.16395 12.25928,-14.10134 27.85329,-21.15219 46.78216,-21.15219 z"
       id="rect1229"
       inkscape:connector-curvature="0" />
    <path
       style="color:#000000;font-style:normal;font-variant:normal;font-weight:normal;font-stretch:normal;font-size:medium;line-height:normal;font-family:sans-serif;font-variant-ligatures:normal;font-variant-position:normal;font-variant-caps:normal;font-variant-numeric:normal;font-variant-alternates:normal;font-feature-settings:normal;text-indent:0;text-align:start;text-decoration:none;text-decoration-line:none;text-decoration-style:solid;text-decoration-color:#000000;letter-spacing:normal;word-spacing:normal;text-transform:none;writing-mode:lr-tb;direction:ltr;text-orientation:mixed;dominant-baseline:auto;baseline-shift:baseline;text-anchor:start;white-space:normal;shape-padding:0;clip-rule:nonzero;display:inline;overflow:visible;visibility:visible;opacity:1;isolation:auto;mix-blend-mode:normal;color-interpolation:sRGB;color-interpolation-filters:linearRGB;solid-color:#000000;solid-opacity:1;vector-effect:none;fill:#dc3636;fill-opacity:1;fill-rule:evenodd;stroke:none;stroke-width:1.41110718;stroke-linecap:round;stroke-linejoin:round;stroke-miterlimit:4;stroke-dasharray:none;stroke-dashoffset:0;stroke-opacity:1;paint-order:markers fill stroke;color-rendering:auto;image-rendering:auto;shape-rendering:auto;text-rendering:auto;enable-background:accumulate"
       d="m 0.70553772,288.53329 c -0.3896829,0 -0.705554332576,0.31598 -0.70553730833685,0.70567 v 7.05546 C 4.8593472e-5,296.68406 0.31590091,296.99991 0.70553772,296.99996 H 7.76113 c 0.3896368,0 0.7054885,-0.3159 0.7055371,-0.70554 v -7.05546 c 1.64e-5,-0.38969 -0.3158542,-0.70562 -0.7055371,-0.70567 z m 3.88327818,0.68233 c 1.0447387,0 1.8637756,0.32083 2.4570842,0.9625 0.06449,0.0709 0.096708,0.13384 0.096708,0.18865 0,0.0613 -0.1128435,0.28859 -0.3385583,0.68198 -0.2224892,0.39339 -0.3627655,0.61426 -0.4208071,0.66263 -0.025796,0.0258 -0.058015,0.0387 -0.096708,0.0387 -0.016124,0 -0.096749,-0.0645 -0.2418502,-0.19345 -0.1741232,-0.15478 -0.3450105,-0.27572 -0.5126846,-0.36278 -0.2547374,-0.12898 -0.5191623,-0.19345 -0.7932432,-0.19345 -0.4740031,0 -0.8528767,0.17735 -1.1366328,0.53204 -0.2611828,0.3289 -0.3917909,0.73518 -0.3917909,1.21885 0,0.49012 0.1306081,0.90125 0.3917909,1.23337 0.2837561,0.36115 0.6626297,0.54173 1.1366328,0.54174 0.2805302,0 0.5465629,-0.0613 0.7980738,-0.18382 0.1644513,-0.0806 0.3321263,-0.19346 0.5030232,-0.33856 0.1418781,-0.12253 0.2208635,-0.18379 0.2369882,-0.18379 0.032245,0 0.064495,0.0177 0.09674,0.0532 0.051592,0.058 0.1918689,0.25957 0.4208064,0.60459 0.2353901,0.35793 0.3530824,0.55461 0.3530824,0.59008 0,0.0516 -0.033855,0.1193 -0.1015706,0.20314 -0.5933086,0.70616 -1.3817035,1.05924 -2.3651749,1.05924 -1.0060442,0 -1.8218378,-0.34341 -2.4473913,-1.03023 -0.6094327,-0.66424 -0.9141682,-1.50259 -0.9141682,-2.51508 0,-0.98025 0.2982794,-1.81217 0.8948139,-2.49576 0.6223275,-0.71584 1.4139352,-1.07377 2.3748363,-1.07377 z"
       id="rect836"
       inkscape:connector-curvature="0" />
  </g>
</svg>
